<svg xmlns="http://www.w3.org/2000/svg" xml:space="preserve" width="913" height="231" style="shape-rendering:geometricPrecision;text-rendering:geometricPrecision;image-rendering:optimizeQuality;fill-rule:evenodd;clip-rule:evenodd" viewBox="0 0 911.32 231.02"><defs><style>.fil0{fill:#fefefe;fill-rule:nonzero}</style></defs><g id="Layer_x0020_1"><g id="_3126653930672"><path d="M788.02 230.78v-23.85l38.7 18.05v-17.91h3.88v23.88c-.2-.09-.48-.22-.83-.39-.36-.17-.9-.42-1.63-.77-.72-.34-1.71-.8-2.97-1.4-1.25-.59-2.81-1.32-4.69-2.2-1.88-.87-4.16-1.94-6.85-3.19q-4.035-1.875-9.39-4.38c-3.58-1.67-7.69-3.59-12.33-5.75v17.91zm-62.14-3.55h29.11c.41 0 .78-.07 1.12-.22.35-.15.65-.34.91-.58s.46-.52.61-.84.23-.65.23-.99v-11.22c0-.34-.08-.67-.23-.99s-.35-.6-.61-.83c-.26-.24-.56-.43-.91-.57a3.1 3.1 0 0 0-1.12-.2h-29.11c-.41 0-.78.07-1.12.2-.35.14-.65.33-.91.57-.26.23-.46.51-.61.83s-.22.65-.22.99v11.22c0 .34.07.67.22.99s.35.6.61.84.56.43.91.58c.34.15.71.22 1.12.22m.04-20.16h29.1c.91 0 1.78.16 2.6.49s1.53.79 2.15 1.37c.61.58 1.09 1.25 1.45 2.03.35.77.53 1.6.53 2.49v11.19c0 .89-.18 1.72-.53 2.49-.36.78-.84 1.45-1.45 2.03-.62.58-1.33 1.04-2.15 1.37s-1.69.49-2.6.49h-29.1c-.94 0-1.81-.16-2.61-.49-.81-.33-1.52-.79-2.14-1.37a6.6 6.6 0 0 1-1.45-2.03 5.95 5.95 0 0 1-.53-2.49v-11.19c0-.89.18-1.72.53-2.49.36-.78.84-1.45 1.45-2.03.62-.58 1.33-1.04 2.14-1.37.8-.33 1.67-.49 2.61-.49m-36.92 0h3.92v23.88H689zm-67.43 3.75v-3.75h42.52v3.75h-19.35v20.13h-3.89v-20.13zm-53.67-3.75h30.06v3.72H567.9a8.1 8.1 0 0 0-2.87.44c-.91.32-1.73.77-2.47 1.35s-1.38 1.27-1.9 2.07-.88 1.65-1.09 2.56l-.1.48a4 4 0 0 0-.1.58c-.03.21-.05.44-.07.69q0 1.605.66 3.09c.45 1 1.05 1.87 1.81 2.64q1.14 1.14 2.73 1.83c1.06.45 2.2.68 3.43.68h30.06v3.72h-30.06c-1.68 0-3.29-.31-4.81-.92-1.53-.62-2.86-1.46-4-2.55a12 12 0 0 1-2.71-3.78c-.67-1.45-1-3.01-1-4.69 0-1.67.34-3.22 1.01-4.68.68-1.45 1.59-2.72 2.73-3.79 1.15-1.07 2.47-1.91 3.99-2.52 1.51-.62 3.1-.92 4.76-.92m-80.26 0h3.89v17.54c0 .34.07.67.22.99.15.31.35.59.61.83.27.24.56.43.89.58s.68.22 1.04.22h29.21q1.2 0 1.98-.78c.52-.52.79-1.14.79-1.84v-17.54h3.89v17.54c0 .88-.19 1.71-.55 2.49q-.54 1.155-1.47 2.01a6.9 6.9 0 0 1-2.13 1.35c-.81.33-1.64.49-2.51.49h-29.21c-.86 0-1.69-.16-2.49-.49s-1.5-.78-2.11-1.35a6.8 6.8 0 0 1-1.49-2.01c-.37-.78-.56-1.61-.56-2.49zm-68.41 3.78v-3.71h35.28c1.11 0 2.12.19 3.03.59s1.68.93 2.31 1.6c.62.67 1.1 1.42 1.43 2.27.33.83.5 1.69.5 2.56 0 .88-.19 1.74-.57 2.59-.37.85-.95 1.61-1.72 2.26-.68.62-1.43 1.08-2.24 1.38-.8.31-1.72.47-2.74.5h-.14l8.7 10.1h-4.6l-9.08-10.07h-26.24v10.07h-3.89V217.2h35.69a3.6 3.6 0 0 0 2.12-1.06c.59-.59.88-1.29.88-2.11s-.29-1.53-.88-2.13c-.6-.61-1.3-.95-2.12-1.05zm-67.43-.03v-3.75h42.52v3.75h-19.35v20.13h-3.89v-20.13zm-66.4 16.35h35.28c.45 0 .89-.09 1.3-.26s.76-.4 1.05-.68c.3-.29.53-.62.7-1.01.18-.39.26-.8.26-1.23 0-.89-.32-1.63-.96-2.23-.63-.61-1.4-.91-2.28-.91h-28.19q-1.32 0-2.61-.51c-.85-.34-1.61-.82-2.28-1.43a7.4 7.4 0 0 1-1.62-2.17c-.41-.83-.62-1.73-.62-2.71v-.14c0-.95.2-1.85.6-2.68s.93-1.55 1.58-2.16c.66-.62 1.42-1.1 2.29-1.45.86-.36 1.77-.53 2.72-.53h35.26v3.72h-35.22c-.48-.02-.91.04-1.31.19-.4.14-.75.36-1.06.65-.3.28-.54.62-.71 1.01a3.05 3.05 0 0 0 0 2.47c.17.39.4.73.7 1.01q.435.435 1.05.69c.41.17.84.25 1.29.25h28.07c.91 0 1.8.19 2.66.55.86.37 1.63.85 2.3 1.47.67.61 1.21 1.34 1.62 2.18s.61 1.74.61 2.7c0 .95-.19 1.85-.56 2.68-.38.83-.89 1.56-1.55 2.2-.66.63-1.43 1.14-2.31 1.5-.87.36-1.81.54-2.81.54H285.4zm-67.84 3.61v-23.85l38.7 18.05v-17.91h3.89v23.88q-.315-.135-.84-.39c-.36-.17-.89-.42-1.62-.77-.73-.34-1.72-.8-2.97-1.4l-4.7-2.2c-1.88-.87-4.16-1.94-6.85-3.19q-4.035-1.875-9.39-4.38c-3.57-1.67-7.69-3.59-12.33-5.75v17.91zm-62.14-3.55h29.11c.41 0 .79-.07 1.13-.22s.64-.34.9-.58.47-.52.62-.84c.14-.32.22-.65.22-.99v-11.22c0-.34-.08-.67-.22-.99-.15-.32-.36-.6-.62-.83q-.39-.36-.9-.57c-.34-.13-.72-.2-1.13-.2h-29.11c-.41 0-.78.07-1.12.2-.34.14-.65.33-.91.57-.26.23-.46.51-.61.83s-.22.65-.22.99v11.22c0 .34.07.67.22.99s.35.6.61.84.57.43.91.58.71.22 1.12.22m.04-20.16h29.1a6.87 6.87 0 0 1 4.75 1.86c.61.58 1.1 1.25 1.45 2.03.35.77.53 1.6.53 2.49v11.19c0 .89-.18 1.72-.53 2.49a6.4 6.4 0 0 1-1.45 2.03 6.87 6.87 0 0 1-4.75 1.86h-29.1c-.93 0-1.81-.16-2.61-.49-.81-.33-1.52-.79-2.13-1.37-.62-.58-1.1-1.25-1.45-2.03-.36-.77-.53-1.6-.53-2.49v-11.19c0-.89.17-1.72.53-2.49.35-.78.83-1.45 1.45-2.03.61-.58 1.32-1.04 2.13-1.37.8-.33 1.68-.49 2.61-.49m-61.76 0h30.06v3.72H93.7a8.1 8.1 0 0 0-2.87.44c-.91.32-1.73.77-2.47 1.35q-1.11.87-1.89 2.07c-.53.8-.89 1.65-1.1 2.56l-.1.48a4 4 0 0 0-.1.58c-.03.21-.05.44-.07.69q0 1.605.66 3.09c.45 1 1.05 1.87 1.81 2.64.77.76 1.67 1.37 2.73 1.83 1.06.45 2.2.68 3.43.68h30.06v3.72H93.73c-1.68 0-3.29-.31-4.81-.92-1.52-.62-2.86-1.46-4-2.55a12 12 0 0 1-2.71-3.78c-.67-1.45-1-3.01-1-4.69 0-1.67.34-3.22 1.01-4.68.68-1.45 1.59-2.72 2.73-3.79 1.15-1.07 2.47-1.91 3.99-2.52 1.51-.62 3.1-.92 4.76-.92M317.53 166.34h283.56v-24.99H317.53zM600.75 74.32H317.53v24.54h283.22zM317.53 31.83h283.22V7.07l-283.22-.23zM658.78 42.6c1.37-1.27 2.9-2.22 4.68-2.89 1.73-.64 3.73-.92 5.94-.82l241.92.01V0H669.5c-7.25 0-14.26 1.36-20.84 4.05-6.53 2.66-12.37 6.38-17.36 11.02-5.01 4.68-9.09 10.25-12.11 16.55-3.09 6.47-4.66 13.49-4.66 20.89v.91c0 7.58 1.62 14.71 4.81 21.19 3.11 6.29 7.27 11.85 12.36 16.52a57 57 0 0 0 17.38 10.89c6.49 2.59 13.22 3.91 20 3.91h187.68c4.12 0 7.42 1.3 10.36 4.09 2.84 2.68 4.16 5.78 4.16 9.74 0 1.91-.36 3.65-1.11 5.33-.76 1.74-1.77 3.2-3.08 4.46-1.35 1.29-2.94 2.31-4.87 3.12-1.87.78-3.81 1.16-5.91 1.16H614.3v38.9h241.82c7.57 0 14.78-1.4 21.44-4.18 6.63-2.75 12.52-6.6 17.52-11.44 5.02-4.84 9.01-10.5 11.87-16.83 2.9-6.42 4.37-13.4 4.37-20.74 0-7.41-1.61-14.48-4.8-21.04-3.1-6.38-7.25-11.99-12.35-16.66-5.03-4.61-10.86-8.34-17.34-11.08-6.6-2.78-13.48-4.19-20.44-4.19H669.5c-2.1 0-4.03-.38-5.89-1.16-1.92-.8-3.5-1.83-4.85-3.13-1.31-1.26-2.32-2.73-3.09-4.5-.74-1.7-1.1-3.46-1.1-5.39 0-1.92.36-3.68 1.11-5.39.74-1.71 1.76-3.15 3.1-4.4M55.97 6.89C45.22 11.28 35.6 17.4 27.36 25.07c-8.28 7.7-14.96 16.92-19.87 27.39C2.52 63.06 0 74.61 0 86.82c0 12.35 2.52 23.99 7.49 34.58 4.9 10.47 11.58 19.72 19.84 27.48 8.26 7.77 17.91 13.9 28.68 18.23 10.79 4.33 22.23 6.53 33.99 6.53h207.02V67.71H187.44l26.77 38.9h42.77v28.12H90c-6.75 0-13.2-1.27-19.2-3.77-6.06-2.54-11.46-6.02-16.05-10.35-4.53-4.28-8.16-9.39-10.8-15.2-2.59-5.71-3.91-11.93-3.91-18.48v-.23c0-6.39 1.28-12.51 3.81-18.17a49.4 49.4 0 0 1 10.64-15.24c4.49-4.36 9.82-7.86 15.86-10.38 6-2.51 12.61-3.78 19.65-3.78h207.02V.23H90c-11.78 0-23.23 2.24-34.03 6.66" class="fil0"/></g></g></svg>